<?xml version="1.0" encoding="utf-8"?>
<!-- Generator: Adobe Illustrator 20.1.0, SVG Export Plug-In . SVG Version: 6.00 Build 0)  -->
<svg version="1.1" id="Layer_1" xmlns="http://www.w3.org/2000/svg" xmlns:xlink="http://www.w3.org/1999/xlink" x="0px" y="0px"
	 viewBox="0 0 564.7 564.7" style="enable-background:new 0 0 564.7 564.7;" xml:space="preserve">
<style type="text/css">
	.st0{fill:#FFFFFF;}
	.st1{fill:none;stroke:#F44336;stroke-miterlimit:10;}
	.st2{clip-path:url(#SVGID_2_);fill:#FFFFFF;}
	.st3{clip-path:url(#SVGID_4_);fill:#FFFFFF;}
</style>
<g>
	<circle class="st0" cx="86.8" cy="430.9" r="30.2"/>
	<circle class="st0" cx="222.3" cy="79.3" r="15.6"/>
	<circle class="st0" cx="452.5" cy="249.4" r="10.8"/>
	<path class="st1" d="M274.6,310.9"/>
	<g>
		<defs>
			<path id="SVGID_1_" d="M284,407.7l-112.1-43.3l-5.2-99.2c30.2,16.6,65.2,33.8,103.1,50.5c40.5,17.8,112.9,45.4,119.8,46.9
				L284,407.7z"/>
		</defs>
		<clipPath id="SVGID_2_">
			<use xlink:href="#SVGID_1_"  style="overflow:visible;"/>
		</clipPath>
		<path class="st2" d="M171.9,287.5c0-60,48.7-108.7,108.7-108.7s108.7,48.7,108.7,108.7s-48.7,108.7-108.7,108.7
			S171.9,347.6,171.9,287.5z"/>
	</g>
	<g>
		<defs>
			<path id="SVGID_3_" d="M388.6,353.8c-2.4-0.8-79.4-28.5-119.9-46.3c-38-16.7-72.9-33.9-103.1-50.5l37.7-58.1l50-24.5l60.3,2.2
				l38.8,21.5l26.4,28.1l15.3,41.7v35.9L388.6,353.8z"/>
		</defs>
		<clipPath id="SVGID_4_">
			<use xlink:href="#SVGID_3_"  style="overflow:visible;"/>
		</clipPath>
		<circle class="st3" cx="280.6" cy="287.5" r="108.7"/>
	</g>
	<circle class="st0" cx="148.4" cy="191.8" r="13.9"/>
	<path class="st0" d="M303.4,247c-48.8-21.4-96.1-38.9-136.6-51.4c-0.2,1.2-0.6,2.4-1,3.5c37.8,11.7,83.8,28.7,134.6,51
		c129.6,56.9,206,117,201.7,129.8c-6.2,18.2-105.7-8.8-235.3-65.6S52,197,63.6,181.8c3.9-5.1,28.1-2.8,66.4,7.1
		c0.2-1.2,0.5-2.3,1-3.4c-47.9-12.3-80.2-14.9-83.6-4.9c-9.1,26.8,85.4,89.6,214.9,146.5c129.6,56.9,240.2,90.7,251.7,64.9
		C522.2,373.3,433,303.9,303.4,247z"/>
	<path class="st0" d="M528.8,564.7H35.9C16.1,564.7,0,548.6,0,528.8V35.9C0,16.1,16.1,0,35.9,0h492.8c19.8,0,35.9,16.1,35.9,35.9
		v492.8C564.7,548.6,548.6,564.7,528.8,564.7z M35.9,12.4c-13,0-23.5,10.6-23.5,23.5v492.8c0,13,10.6,23.5,23.5,23.5h492.8
		c13,0,23.5-10.6,23.5-23.5V35.9c0-13-10.6-23.5-23.5-23.5H35.9z"/>
</g>
</svg>
