<?xml version="1.0" encoding="utf-8"?>
<!-- Generator: Adobe Illustrator 20.1.0, SVG Export Plug-In . SVG Version: 6.00 Build 0)  -->
<svg version="1.1" id="Layer_1" xmlns="http://www.w3.org/2000/svg" xmlns:xlink="http://www.w3.org/1999/xlink" x="0px" y="0px"
	 viewBox="0 0 579.4 144" style="enable-background:new 0 0 579.4 144;" xml:space="preserve">
<style type="text/css">
	.st0{fill:#FFFFFF;}
</style>
<g>
	<g>
		<g>
			<polygon class="st0" points="0,21.3 22.2,21.3 22.2,102.2 63.3,102.2 63.3,122.7 0,122.7 			"/>
			<g>
				<path class="st0" d="M73.2,54h21.4v68.7H73.2V54z M83.8,19.8c6.8,0,12.4,5.5,12.4,12.4c0,6.8-5.5,12.4-12.4,12.4
					c-6.8,0-12.4-5.5-12.4-12.4C71.4,25.3,77,19.8,83.8,19.8"/>
			</g>
			<polygon class="st0" points="183.8,21.3 205.1,21.3 205.1,81.9 229.3,53.9 255.4,53.9 227.4,85.7 254.9,122.7 228,122.7 
				205.4,88.7 205.1,88.7 205.1,122.7 183.8,122.7 			"/>
			<path class="st0" d="M106.3,54h20.5v9.4h0.3c2.8-5.4,9.8-11.1,20.2-11.1c21.6,0,25.6,14.2,25.6,32.7v37.7h-21.4V89.3
				c0-8-0.1-18.2-11.1-18.2c-11.1,0-12.8,8.7-12.8,17.6v34h-21.4V54z"/>
			<path class="st0" d="M300.4,80.3c0.1-7.1-5.4-13.1-13.1-13.1c-9.4,0-14.5,6.4-15.1,13.1H300.4z M318.5,110.8
				c-6.8,8.7-18.1,13.7-29.2,13.7c-21.3,0-38.4-14.2-38.4-36.3c0-22.1,17.1-36.3,38.4-36.3c19.9,0,32.5,14.2,32.5,36.3v6.7h-49.5
				c1.7,8.1,7.8,13.4,16.1,13.4c7,0,11.7-3.6,15.2-8.4L318.5,110.8z"/>
			<path class="st0" d="M366.2,70.6c-10.7,0-17.1,7.1-17.1,17.5c0,10.4,6.4,17.5,17.1,17.5c10.7,0,17.1-7.1,17.1-17.5
				C383.3,77.7,376.9,70.6,366.2,70.6 M402.9,122.7h-19.6v-9.1H383c-3.3,5-11.5,10.8-21.2,10.8c-20.5,0-34-14.8-34-35.7
				c0-19.2,12-36.9,31.6-36.9c8.8,0,17.1,2.4,21.9,9.1h0.3V21.3h21.4V122.7z"/>
		</g>
		<path class="st0" d="M557.6,0H434.9c-5.9,0-10.6,4.6-10.6,10.4v123.2c0,5.7,4.8,10.4,10.6,10.4h122.7c5.9,0,10.7-4.7,10.7-10.4
			V10.4C568.3,4.6,563.5,0,557.6,0z M467,122.7h-21.4V54H467V122.7z M456.3,44.6c-6.8,0-12.4-5.6-12.4-12.4
			c0-6.8,5.5-12.4,12.4-12.4c6.8,0,12.4,5.5,12.4,12.4C468.7,39,463.1,44.6,456.3,44.6z M547,122.7h-21.3V89.3
			c0-8-0.1-18.2-11.1-18.2c-11.1,0-12.8,8.7-12.8,17.6v34h-21.3V54h20.5v9.4h0.3c2.8-5.4,9.8-11.1,20.2-11.1
			C543,52.3,547,66.5,547,85V122.7z"/>
	</g>
	<g>
		<path class="st0" d="M576.2,120c0.7-0.1,1-0.5,1-1.1c0-0.8-0.5-1.1-1.4-1.1h-1.5v4h0.6V120h0.7l0,0l1.1,1.7h0.6L576.2,120
			L576.2,120z M575.5,119.6h-0.7v-1.4h0.9c0.4,0,0.9,0.1,0.9,0.6C576.7,119.5,576.2,119.6,575.5,119.6z"/>
		<path class="st0" d="M575.6,116c-2.1,0-3.8,1.7-3.8,3.8c0,2.1,1.7,3.8,3.8,3.8c2.1,0,3.8-1.7,3.8-3.8
			C579.4,117.6,577.8,116,575.6,116z M575.6,123.1c-1.8,0-3.3-1.4-3.3-3.3c0-1.9,1.4-3.3,3.3-3.3c1.8,0,3.3,1.4,3.3,3.3
			C578.9,121.7,577.4,123.1,575.6,123.1z"/>
	</g>
</g>
</svg>
